<?xml version="1.0" encoding="utf-8"?>
<!-- Generator: Adobe Illustrator 25.0.0, SVG Export Plug-In . SVG Version: 6.00 Build 0)  -->
<svg version="1.1" id="Camada_1" xmlns="http://www.w3.org/2000/svg" xmlns:xlink="http://www.w3.org/1999/xlink" x="0px" y="0px"
	 viewBox="0 0 1500 500" style="enable-background:new 0 0 1500 500;" xml:space="preserve">
<style type="text/css">
	.st0{opacity:0.5;fill:#141414;}
	.st1{opacity:0.5;fill:#C8C8C8;}
	.st2{fill:#FFFFFF;}
	.st3{font-family:'Heavitas';}
	.st4{font-size:72px;}
	.st5{font-size:30px;}
</style>
<path class="st0" d="M-65.5,418.5c28.3-2.8,72.5-5.3,126,0C156.7,428,181.4,452.7,251,447c73.9-6.1,70.4-35.9,136.5-39
	c72.6-3.4,84.3,32.1,193.5,54c71.9,14.4,128.6,25.7,174-4.5c50.4-33.5,43.9-89.5,84-97.5c32.6-6.5,41.6,29.7,112.5,55.5
	c63.3,23.1,116.9,16.4,127.5,15c40.3-5.5,73.7-20.5,78-22.5c41.8-19.1,49.3-35.6,72-36c35-0.7,55.6,37.6,78,58.5
	c34.3,32,105.5,54,270,1.5c-14.5-187.5-29-375-43.5-562.5c-542,11-1084,22-1626,33C-83.5,74.5-74.5,246.5-65.5,418.5z"/>
<path class="st1" d="M-38.5,381c17.2,1.9,42.7,4.9,73.5,9c77.5,10.4,82.2,13.9,106.5,15c76.6,3.3,83.1-29.7,141-25.5
	c72.9,5.3,74.5,58.4,145.5,67.5c76.2,9.7,90-49.5,174-45c80.3,4.4,103.1,60.5,162,43.5c42.4-12.2,40.2-44,90-57
	c42.4-11.1,55.9,9,111,3c55-6,54.3-27.3,99-33c72-9.1,82.9,45.1,178.5,54c63.3,5.9,81.2-15.7,130.5,4.5c28.3,11.6,38.1,25.1,75,39
	c34.1,12.8,64.8,15.9,85.5,16.5c3.5-174,7-348,10.5-522C1020-44,496-38.5-28-33C-31.5,105-35,243-38.5,381z"/>
<g>
	<text transform="matrix(1 0 0 1 392.3081 230.3563)" class="st2 st3 st4">MARCOS HELBERT</text>
	<text transform="matrix(1 0 0 1 646.2461 159.4617)" class="st2 st3 st5">Olá, eu sou</text>
</g>
</svg>
